<svg width="1920" height="1080" viewBox="0 0 1920 1080" xmlns="http://www.w3.org/2000/svg"><rect width="1920" height="1080" fill="#f9d6cb"/><path d="M 0,1080 C 0,1080 0,360 0,360 C 135.6267942583732,353.9425837320574 271.2535885167464,347.88516746411483 388,310 C 504.7464114832536,272.11483253588517 602.6124401913875,202.4019138755981 722,230 C 841.3875598086125,257.5980861244019 982.2966507177032,382.50717703349284 1112,387 C 1241.7033492822968,391.49282296650716 1360.2009569377992,275.56937799043067 1493,251 C 1625.7990430622008,226.43062200956936 1772.8995215311004,293.21531100478467 1920,360 C 1920,360 1920,1080 1920,1080 Z" fill="#e3f3f1" opacity="0.19999999999999998"/><path d="M 0,1080 C 0,1080 0,720 0,720 C 117.69377990430621,694.22009569378 235.38755980861242,668.4401913875598 382,665 C 528.6124401913876,661.5598086124402 704.1435406698566,680.4593301435407 839,716 C 973.8564593301434,751.5406698564593 1068.0382775119617,803.7224880382774 1166,811 C 1263.9617224880383,818.2775119617226 1365.7033492822966,780.6507177033494 1492,758 C 1618.2966507177034,735.3492822966506 1769.1483253588517,727.6746411483252 1920,720 C 1920,720 1920,1080 1920,1080 Z" fill="#e3f3f1" opacity="0.39999999999999997"/></svg>